HIERARCHY
ROOT Hips
{
	OFFSET 0.000000 89.005402 0.000000
	CHANNELS 6 Xposition Yposition Zposition Xrotation Yrotation Zrotation
	JOINT Spine
	{
		OFFSET 0.116900 10.681000 0.373400
		CHANNELS 3 Xrotation Yrotation Zrotation
		JOINT Spine1
		{
			OFFSET 0.000000 13.840401 0.053500
			CHANNELS 3 Xrotation Yrotation Zrotation
			JOINT Spine2
			{
				OFFSET 0.000000 14.712700 -0.366200
				CHANNELS 3 Xrotation Yrotation Zrotation
				JOINT Neck
				{
					OFFSET 0.000000 35.415497 -3.314200
					CHANNELS 3 Xrotation Yrotation Zrotation
					JOINT Head
					{
						OFFSET 0.000000 16.899200 1.218300
						CHANNELS 3 Xrotation Yrotation Zrotation
						JOINT HeadTop_End
						{
							OFFSET 0.000000 22.206207 2.192500
							CHANNELS 3 Xrotation Yrotation Zrotation
							End Site
							{
								OFFSET 0.000000 22.314178 0.000000
							}
						}
					}
				}
				JOINT LeftShoulder
				{
					OFFSET 12.896400 26.716293 -4.548400
					CHANNELS 3 Xrotation Yrotation Zrotation
					JOINT LeftArm
					{
						OFFSET 19.027000 -4.857010 -1.718400
						CHANNELS 3 Xrotation Yrotation Zrotation
						JOINT LeftForeArm
						{
							OFFSET 24.179897 0.000000 0.000000
							CHANNELS 3 Xrotation Yrotation Zrotation
							JOINT LeftHand
							{
								OFFSET 27.156403 0.000000 0.000000
								CHANNELS 3 Xrotation Yrotation Zrotation
								JOINT LeftHandIndex1
								{
									OFFSET 16.441200 0.000000 0.000000
									CHANNELS 3 Xrotation Yrotation Zrotation
									JOINT LeftHandIndex2
									{
										OFFSET 4.821899 0.000000 0.000000
										CHANNELS 3 Xrotation Yrotation Zrotation
										JOINT LeftHandIndex3
										{
											OFFSET 6.386497 0.000000 0.000000
											CHANNELS 3 Xrotation Yrotation Zrotation
											JOINT LeftHandIndex4
											{
												OFFSET 5.188988 0.000000 0.000000
												CHANNELS 3 Xrotation Yrotation Zrotation
												End Site
												{
													OFFSET -0.178703 5.185913 0.000177
												}
											}
										}
									}
								}
								JOINT LeftHandThumb1
								{
									OFFSET 6.534897 -5.032593 5.900300
									CHANNELS 3 Xrotation Yrotation Zrotation
									JOINT LeftHandThumb2
									{
										OFFSET 3.818176 -2.204422 2.204423
										CHANNELS 3 Xrotation Yrotation Zrotation
										JOINT LeftHandThumb3
										{
											OFFSET 3.252098 -1.877594 1.877601
											CHANNELS 3 Xrotation Yrotation Zrotation
											JOINT LeftHandThumb4
											{
												OFFSET 5.251778 -3.032120 3.032117
												CHANNELS 3 Xrotation Yrotation Zrotation
												End Site
												{
													OFFSET 0.000023 6.780014 0.000000
												}
											}
										}
									}
								}
							}
						}
					}
				}
				JOINT RightShoulder
				{
					OFFSET -12.896300 26.716293 -4.548400
					CHANNELS 3 Xrotation Yrotation Zrotation
					JOINT RightArm
					{
						OFFSET -19.027000 -4.857010 -1.718400
						CHANNELS 3 Xrotation Yrotation Zrotation
						JOINT RightForeArm
						{
							OFFSET -24.179897 0.000000 0.000000
							CHANNELS 3 Xrotation Yrotation Zrotation
							JOINT RightHand
							{
								OFFSET -27.156403 0.000000 0.000000
								CHANNELS 3 Xrotation Yrotation Zrotation
								JOINT RightHandThumb1
								{
									OFFSET -6.591202 -4.852203 5.988100
									CHANNELS 3 Xrotation Yrotation Zrotation
									JOINT RightHandThumb2
									{
										OFFSET -3.818176 -2.204422 2.204423
										CHANNELS 3 Xrotation Yrotation Zrotation
										JOINT RightHandThumb3
										{
											OFFSET -3.252098 -1.877594 1.877601
											CHANNELS 3 Xrotation Yrotation Zrotation
											JOINT RightHandThumb4
											{
												OFFSET -5.251778 -3.032120 3.032117
												CHANNELS 3 Xrotation Yrotation Zrotation
												End Site
												{
													OFFSET -0.000023 6.780014 0.000000
												}
											}
										}
									}
								}
								JOINT RightHandIndex1
								{
									OFFSET -16.029404 0.000000 0.000000
									CHANNELS 3 Xrotation Yrotation Zrotation
									JOINT RightHandIndex2
									{
										OFFSET -5.213303 0.000000 0.000000
										CHANNELS 3 Xrotation Yrotation Zrotation
										JOINT RightHandIndex3
										{
											OFFSET -6.386528 0.000000 0.000000
											CHANNELS 3 Xrotation Yrotation Zrotation
											JOINT RightHandIndex4
											{
												OFFSET -5.189026 0.000000 0.000000
												CHANNELS 3 Xrotation Yrotation Zrotation
												End Site
												{
													OFFSET 0.236702 5.183624 0.001972
												}
											}
										}
									}
								}
							}
						}
					}
				}
			}
		}
	}
	JOINT LeftUpLeg
	{
		OFFSET 14.073000 -7.904099 -1.463000
		CHANNELS 3 Xrotation Yrotation Zrotation
		JOINT LeftLeg
		{
			OFFSET -0.109806 -34.073280 4.093200
			CHANNELS 3 Xrotation Yrotation Zrotation
			JOINT LeftFoot
			{
				OFFSET 0.109806 -29.899420 -6.319000
				CHANNELS 3 Xrotation Yrotation Zrotation
				JOINT LeftToeBase
				{
					OFFSET 1.551100 -14.988700 20.535801
					CHANNELS 3 Xrotation Yrotation Zrotation
					JOINT LeftToe_End
					{
						OFFSET 0.221200 0.570800 13.248301
						CHANNELS 3 Xrotation Yrotation Zrotation
						End Site
						{
							OFFSET 0.000000 13.262435 0.000000
						}
					}
				}
			}
		}
	}
	JOINT RightUpLeg
	{
		OFFSET -13.839300 -7.904099 -1.463000
		CHANNELS 3 Xrotation Yrotation Zrotation
		JOINT RightLeg
		{
			OFFSET 0.109694 -34.073219 4.093300
			CHANNELS 3 Xrotation Yrotation Zrotation
			JOINT RightFoot
			{
				OFFSET -0.109694 -29.899384 -6.319200
				CHANNELS 3 Xrotation Yrotation Zrotation
				JOINT RightToeBase
				{
					OFFSET -1.551100 -14.988700 20.535801
					CHANNELS 3 Xrotation Yrotation Zrotation
					JOINT RightToe_End
					{
						OFFSET -0.221200 0.570900 13.248299
						CHANNELS 3 Xrotation Yrotation Zrotation
						End Site
						{
							OFFSET 0.000000 13.262440 0.000000
						}
					}
				}
			}
		}
	}
}
MOTION
Frames: 8
Frame Time: 0.033333
4.014013 80.209846 19.114000 -16.305767 -0.630487 3.474870 5.200434 3.651656 -6.159531 7.290862 2.787656 1.158559 6.210735 2.534199 -0.924929 -2.688033 2.930059 10.390808 9.818160 -9.600159 1.218317 0.000001 0.000000 -0.000000 -1.402947 0.594990 -4.820627 -51.359249 -33.550740 -78.713286 0.000297 -98.671563 0.000328 -0.303250 -14.251547 4.559010 0.255315 3.378216 -45.814331 5.654095 5.847751 -88.067462 2.162138 4.544823 -50.866379 0.000000 -0.000001 -0.000002 -6.141219 -11.690802 -6.761673 9.914129 42.595522 3.409840 -0.422795 8.108079 27.509089 0.000002 0.000003 -0.000001 2.606487 8.830775 1.181917 -32.428160 -1.916260 62.051784 0.000012 134.754305 -0.000033 6.755136 -5.858732 -4.947708 -7.341098 13.749657 7.412332 9.855763 -44.489093 -3.903247 -0.115776 -14.513080 -28.973881 -0.000000 -0.000002 -0.000003 -0.124376 -2.384783 45.108878 4.500585 -4.654549 88.071137 1.723222 -3.618379 50.920095 0.000001 -0.000001 0.000001 -10.599691 11.852774 -4.082182 43.312610 -4.552653 2.059218 -14.161500 -29.372003 7.515753 1.187523 -0.000011 -0.000000 -0.000000 -0.000000 0.000000 -9.039886 -19.746142 -24.517977 64.216400 -8.583625 -10.098369 5.526388 -29.898190 4.502236 -14.497930 -3.866857 15.764766 -0.000000 0.000001 0.000001 
2.670520 79.632225 18.141394 -13.285291 -4.107990 3.599565 3.981703 5.547553 -6.676736 6.418538 2.380668 0.650460 5.389102 2.235276 -0.852726 -2.864191 3.181235 9.583622 9.611665 -7.761215 1.501569 -0.000001 0.000000 0.000000 -1.434859 2.000251 -5.299300 -52.185719 -32.507841 -77.650980 -0.000428 -98.434917 -0.000411 1.992470 -13.072105 1.047916 0.255317 3.378216 -45.814334 5.654095 5.847751 -88.067455 2.162138 4.544821 -50.866376 0.000002 -0.000001 0.000001 -6.141219 -11.690802 -6.761672 9.914121 42.595519 3.409840 -0.422794 8.108080 27.509091 -0.000000 -0.000001 0.000000 3.187844 10.602581 -0.228813 -30.407978 -2.082222 63.308122 0.000002 134.629490 -0.000006 5.450502 -4.671556 -4.590935 -7.341098 13.749657 7.412335 9.855767 -44.489093 -3.903240 -0.115779 -14.513078 -28.973878 -0.000001 -0.000001 0.000001 -0.124374 -2.384784 45.108881 4.500585 -4.654549 88.071137 1.723224 -3.618379 50.920098 0.000000 0.000000 -0.000000 -15.214535 12.050641 -2.601373 44.525221 -5.303602 1.053406 -14.247773 -27.176452 6.946747 1.167957 -0.000002 -0.000001 -0.000000 0.000001 -0.000000 -3.383950 -20.340331 -23.458303 57.519864 -10.816368 -10.314712 -4.726820 -30.686510 6.247243 -11.033963 -0.886737 7.768543 -0.000000 -0.000000 0.000002 
1.100224 78.306808 16.782282 -10.972142 -7.700710 3.362459 3.213714 6.888255 -7.040292 5.232750 1.971228 0.150777 4.445907 1.889107 -0.841787 -2.965223 3.684688 8.794662 8.969699 -5.356453 1.334585 -0.000000 -0.000000 -0.000000 -1.414993 3.576754 -5.864630 -52.375031 -31.326840 -75.299393 0.000001 -97.743436 -0.000008 4.053690 -12.723300 -3.347124 0.255315 3.378216 -45.814331 5.654095 5.847749 -88.067462 2.162136 4.544822 -50.866382 -0.000001 -0.000001 0.000000 -6.141219 -11.690800 -6.761674 9.914125 42.595519 3.409839 -0.422794 8.108078 27.509092 0.000000 -0.000001 0.000000 3.572861 12.053739 -1.647152 -28.206567 -1.930632 65.310836 0.000017 132.729960 -0.000027 2.393385 -1.898450 -4.159846 -7.341095 13.749656 7.412334 9.855766 -44.489096 -3.903244 -0.115779 -14.513078 -28.973878 -0.000003 -0.000002 0.000001 -0.124374 -2.384787 45.108881 4.500588 -4.654549 88.071137 1.723223 -3.618380 50.920098 0.000000 -0.000003 -0.000001 -20.702515 12.316251 0.206563 48.309781 -6.021332 0.300725 -15.551376 -24.562590 6.096615 0.554719 0.000003 -0.000001 0.000000 0.000003 -0.000000 2.203844 -21.087156 -22.593873 51.671081 -10.320449 -10.309202 -12.771965 -31.635394 12.629066 -9.157922 -0.015155 1.043314 0.000000 -0.000001 -0.000002 
-0.418400 76.585754 15.032599 -8.776119 -11.210288 2.930559 3.024340 7.692449 -6.853587 3.934864 1.583881 -0.470131 3.470590 1.531302 -1.028374 -3.041487 4.426258 8.065514 7.846502 -2.467928 0.880969 0.000000 -0.000000 0.000000 -1.359422 4.923422 -6.375638 -52.263778 -30.222750 -72.116791 -0.000008 -96.724132 -0.000008 6.040897 -13.339120 -7.232883 0.255315 3.378218 -45.814331 5.654093 5.847752 -88.067462 2.162137 4.544822 -50.866369 -0.000000 -0.000000 -0.000001 -6.141219 -11.690801 -6.761673 9.914123 42.595519 3.409833 -0.422795 8.108083 27.509091 -0.000002 0.000001 0.000001 3.676309 13.036137 -3.032004 -25.646107 -1.541922 67.400348 -0.000002 129.810709 -0.000009 -1.737423 1.694163 -3.473361 -7.341094 13.749658 7.412332 9.855765 -44.489093 -3.903246 -0.115777 -14.513083 -28.973881 -0.000000 0.000003 0.000000 -0.124374 -2.384785 45.108878 4.500587 -4.654547 88.071137 1.723229 -3.618380 50.920098 -0.000000 -0.000002 -0.000001 -28.515898 11.932570 4.554045 53.270595 -7.061107 -0.286526 -13.021386 -23.367481 2.960328 -2.604252 -0.000006 -0.000001 -0.000000 -0.000000 0.000000 4.985999 -21.830441 -22.305760 47.048515 -9.213486 -10.071192 -18.821259 -31.398202 20.180591 -9.637251 0.000020 0.000009 -0.000000 -0.000000 -0.000002 
-1.592421 75.046463 13.188668 -6.907582 -14.269710 2.313644 3.472712 7.896803 -6.058456 2.890445 1.271443 -1.119237 2.700088 1.228325 -1.352133 -3.054248 5.317216 7.395515 6.534427 0.641682 0.314081 -0.000001 -0.000000 0.000000 -1.277113 5.674028 -6.722759 -52.016631 -29.168815 -68.828410 -0.000843 -95.515244 -0.000846 8.218610 -14.637795 -9.487315 0.255314 3.378218 -45.814331 5.654094 5.847753 -88.067462 2.162137 4.544822 -50.866376 0.000001 0.000002 -0.000004 -6.141218 -11.690802 -6.761670 9.914126 42.595522 3.409839 -0.422791 8.108086 27.509089 -0.000000 0.000001 -0.000001 3.570992 13.545327 -4.129046 -22.901834 -0.762510 68.433619 0.000036 126.460775 -0.000059 -5.743626 5.170714 -2.748929 -7.341096 13.749662 7.412333 9.855764 -44.489096 -3.903249 -0.115778 -14.513081 -28.973878 -0.000000 0.000000 0.000002 -0.124375 -2.384780 45.108881 4.500589 -4.654548 88.071143 1.723228 -3.618381 50.920095 -0.000000 -0.000000 0.000000 -34.973488 10.888558 8.587792 57.849899 -6.670197 -0.292436 -12.928577 -23.409760 -0.009463 -6.085426 -0.000001 -0.000002 -0.000000 -0.000003 -0.000000 3.658809 -21.825079 -23.589347 45.766130 -8.506950 -8.009260 -23.239934 -28.686774 25.685080 -5.996361 0.000011 -0.000004 -0.000001 0.000000 0.000000 
-2.370386 74.106705 11.562928 -5.830558 -16.754384 1.695678 4.496070 7.458958 -5.133887 2.350257 1.043840 -1.520459 2.317642 1.000910 -1.562904 -2.848831 6.234063 6.811349 5.596507 3.635277 -0.247119 -0.000000 -0.000000 -0.000000 -1.150083 5.774999 -6.923566 -51.667270 -27.914420 -66.027002 -0.000504 -94.317228 -0.000522 10.733295 -16.068695 -10.268401 0.255315 3.378217 -45.814331 5.654094 5.847750 -88.067462 2.162137 4.544822 -50.866376 -0.000001 -0.000002 -0.000002 -6.141219 -11.690799 -6.761674 9.914125 42.595522 3.409842 -0.422796 8.108082 27.509094 0.000001 0.000001 0.000000 3.422036 13.624627 -4.676920 -20.586052 0.716754 67.699783 0.000032 122.746231 -0.000035 -8.813551 7.975455 -2.406794 -7.341097 13.749655 7.412333 9.855768 -44.489096 -3.903247 -0.115779 -14.513081 -28.973881 -0.000003 0.000001 0.000001 -0.124374 -2.384783 45.108881 4.500587 -4.654546 88.071143 1.723225 -3.618379 50.920095 0.000001 0.000001 0.000001 -39.482486 9.516503 11.854512 61.026579 -6.318479 -0.027749 -12.574583 -23.466385 -3.057729 -5.577822 0.000002 -0.000002 -0.000000 0.000000 0.000000 -0.127658 -21.477144 -25.208755 47.932707 -7.352036 -5.898417 -26.932295 -25.870216 25.827088 -1.354812 -0.000034 0.000002 0.000000 0.000002 -0.000000 
-2.909629 73.822708 10.339254 -5.566434 -18.674145 1.172726 5.812720 6.506393 -4.641600 2.276366 0.867703 -1.521735 2.294270 0.823894 -1.496290 -2.341491 7.091038 6.367358 5.458240 6.288288 -0.713888 -0.000001 -0.000000 -0.000000 -0.961037 5.467520 -7.071950 -51.442584 -26.405231 -64.029164 0.004361 -93.289654 0.004322 13.325002 -17.211124 -10.573146 0.255317 3.378221 -45.814331 5.654094 5.847752 -88.067462 2.162139 4.544822 -50.866376 -0.000002 0.000001 -0.000005 -6.141219 -11.690800 -6.761676 9.914120 42.595515 3.409837 -0.422795 8.108081 27.509091 0.000003 0.000003 -0.000001 3.329667 13.324091 -4.706598 -19.169385 3.004869 65.670049 0.000023 118.745120 -0.000039 -10.942547 10.095300 -2.464554 -7.341100 13.749659 7.412331 9.855763 -44.489096 -3.903243 -0.115775 -14.513080 -28.973874 0.000001 -0.000000 0.000002 -0.124377 -2.384784 45.108878 4.500588 -4.654547 88.071137 1.723222 -3.618377 50.920095 -0.000000 0.000001 0.000003 -41.658929 8.361773 14.188041 62.204821 -6.332485 0.362473 -11.531393 -23.926221 -5.691945 -5.225213 -0.015134 0.971856 -0.000000 0.000001 0.000000 -3.813536 -21.029808 -26.102497 51.446955 -7.188610 -5.012323 -28.992292 -23.127659 24.060129 -1.160291 -0.000024 0.000001 0.000000 0.000000 -0.000000 
-3.323107 73.978279 9.471349 -5.620796 -20.224393 0.830760 6.990475 5.384150 -4.746158 2.408421 0.716080 -1.275213 2.422838 0.674684 -1.249930 -1.662399 7.872990 6.080739 6.054448 8.551872 -1.032510 -0.000000 0.000000 0.000000 -0.743993 5.050600 -7.212705 -51.626203 -24.927656 -62.826614 0.000462 -92.594976 0.000447 15.354603 -17.952382 -11.086770 0.255316 3.378216 -45.814327 5.654094 5.847752 -88.067462 2.162138 4.544822 -50.866376 -0.000003 -0.000000 0.000001 -6.141216 -11.690799 -6.761664 9.914131 42.595519 3.409837 -0.422794 8.108077 27.509089 -0.000001 0.000000 0.000002 3.256393 12.766136 -4.561166 -18.639716 5.795818 63.656366 0.000067 115.066257 -0.000079 -12.413589 11.880136 -2.495730 -7.341095 13.749655 7.412337 9.855767 -44.489096 -3.903246 -0.115776 -14.513081 -28.973878 0.000002 0.000000 0.000002 -0.124373 -2.384787 45.108881 4.500588 -4.654548 88.071137 1.723224 -3.618379 50.920098 -0.000001 0.000000 -0.000002 -42.077660 7.649221 15.757506 61.586190 -6.655149 0.792213 -10.848220 -24.911524 -8.314315 -4.633831 -0.106387 2.572557 -0.000000 -0.000001 0.000000 -6.254289 -20.536482 -26.491790 54.027090 -7.293302 -4.738202 -29.318368 -20.927049 23.116640 -2.679944 0.000032 -0.000005 0.000000 -0.000000 -0.000000 
